<svg width="100" height="70" viewBox="0 0 100 70" fill="none" xmlns="http://www.w3.org/2000/svg">
<rect x="56.0273" y="9.92969" width="9.92324" height="14.6952" transform="rotate(-90 56.0273 9.92969)" fill="#337418"/>
<rect x="41.3408" y="9.92969" width="9.92324" height="14.6952" transform="rotate(-90 41.3408 9.92969)" fill="#337418"/>
<rect x="70.6689" y="14.9219" width="9.79678" height="14.8849" fill="#337418"/>
<rect x="90.2041" y="44.5352" width="9.79678" height="14.8849" fill="#337418"/>
<rect x="70.5752" y="29.7148" width="9.92324" height="14.6952" transform="rotate(-90 70.5752 29.7148)" fill="#337418"/>
<rect x="85.2607" y="29.7148" width="9.92324" height="14.6952" transform="rotate(-90 85.2607 29.7148)" fill="#337418"/>
<rect x="70.6689" y="0.046875" width="9.79678" height="14.8849" fill="#337418"/>
<rect x="90.2041" y="29.6562" width="9.79678" height="14.8849" fill="#337418"/>
<rect width="9.86021" height="14.7903" transform="matrix(0.702558 -0.711627 0.702558 0.711627 24.0996 13.9609)" fill="#5DD62C"/>
<rect width="9.86021" height="14.7903" transform="matrix(0.702558 -0.711627 0.702558 0.711627 24.0996 35)" fill="#5DD62C"/>
<rect width="9.86021" height="14.7903" transform="matrix(0.702558 -0.711627 0.702558 0.711627 6.8584 31.4258)" fill="#5DD62C"/>
<rect width="9.86021" height="14.7903" transform="matrix(-0.702558 -0.711627 0.702558 -0.711627 13.7861 24.4844)" fill="#5DD62C"/>
<rect width="9.86021" height="14.7903" transform="matrix(-0.702558 -0.711627 0.702558 -0.711627 13.7861 24.4844)" fill="#5DD62C"/>
<rect width="9.86021" height="14.7903" transform="matrix(-0.702558 0.711626 -0.702558 -0.711627 24.1768 55.9727)" fill="#5DD62C"/>
<rect width="9.86021" height="14.7903" transform="matrix(0.702558 0.711627 -0.702558 0.711626 34.4912 45.4492)" fill="#5DD62C"/>
<rect width="9.86021" height="9.86021" transform="matrix(0.702558 0.711627 -0.702558 0.711627 24.1699 0)" fill="#5DD62C"/>
<rect width="9.86021" height="9.86021" transform="matrix(0.702558 0.711627 -0.702558 0.711627 41.4121 38.5)" fill="#5DD62C"/>
<rect width="9.86021" height="9.86021" transform="matrix(0.702558 0.711627 -0.702558 0.711627 24.1699 55.9648)" fill="#5DD62C"/>
<rect width="9.86021" height="9.86021" transform="matrix(0.702558 0.711627 -0.702558 0.711627 6.92773 17.4648)" fill="#5DD62C"/>
</svg>
